<svg aria-hidden="true" style="position:absolute;width:0;height:0" xmlns="http://www.w3.org/2000/svg" overflow="hidden"><defs><symbol id="icon-cart" viewBox="0 0 32 32"><path d="M13.418 25.177c-1.552 0-2.814 1.262-2.814 2.814s1.262 2.814 2.814 2.814 2.814-1.262 2.814-2.814a2.817 2.817 0 00-2.814-2.814zm0 4.057c-.685 0-1.243-.558-1.243-1.243s.558-1.243 1.243-1.243 1.243.558 1.243 1.243-.558 1.243-1.243 1.243zm9.871-4.057c-1.552 0-2.814 1.262-2.814 2.814s1.262 2.814 2.814 2.814 2.814-1.262 2.814-2.814a2.817 2.817 0 00-2.814-2.814zm0 4.057c-.685 0-1.243-.558-1.243-1.243s.558-1.243 1.243-1.243 1.243.558 1.243 1.243-.558 1.243-1.243 1.243zm.693-18.874H12.723a.786.786 0 000 1.572h11.259a.786.786 0 000-1.572zm-.613 4.08H13.335a.786.786 0 000 1.572h10.034a.786.786 0 000-1.572z"/><path d="M31.646 6.859a1.564 1.564 0 00-1.215-.579H5.955l-.494-2.399a1.58 1.58 0 00-.903-1.12l-.01-.004L1.099 1.26a.786.786 0 00-.626 1.442l3.449 1.497 3.802 18.454c.15.727.797 1.254 1.539 1.254h18.823a.786.786 0 000-1.572H9.263l-.462-2.245h19.431c.742 0 1.389-.527 1.539-1.254l2.198-10.667a1.562 1.562 0 00-.323-1.313l.002.003zm-3.415 11.66H8.477L6.279 7.852h24.15l-2.198 10.667z"/></symbol><symbol id="icon-heart" viewBox="0 0 32 32"><path d="M29.505 5.07a8.81 8.81 0 00-6.347-2.672c-2.371 0-4.6.923-6.276 2.6l-.865.866-.866-.866c-1.677-1.677-3.905-2.6-6.275-2.6s-4.6.923-6.276 2.6C.924 6.674.001 8.903.001 11.274S.924 15.873 2.6 17.55l11.093 11.093c.641.641 1.482.961 2.324.961s1.683-.32 2.324-.961l11.021-11.02c3.462-3.462 3.526-9.092.144-12.551zm-1.306 11.389l-11.021 11.02a1.645 1.645 0 01-2.324 0L3.761 16.386c-1.366-1.366-2.118-3.182-2.118-5.114s.752-3.748 2.118-5.114c1.366-1.366 3.182-2.119 5.114-2.119s3.747.752 5.113 2.119l.867.867-1.327 1.328a.822.822 0 00.58 1.402h.001c.21 0 .421-.08.581-.241l3.354-3.356a7.185 7.185 0 015.114-2.119c1.962 0 3.798.774 5.172 2.178 2.756 2.819 2.697 7.412-.131 10.24z"/><path d="M29.143 10.9A5.981 5.981 0 0027.4 7.031a5.992 5.992 0 00-2.627-1.538.822.822 0 00-.441 1.583 4.357 4.357 0 013.169 3.913l.001.013a.822.822 0 101.639-.102z"/></symbol><symbol id="icon-compass" viewBox="0 0 32 32"><path d="M16 8.306c-5.523 0-10.016 4.493-10.016 10.016S10.477 28.338 16 28.338s10.016-4.493 10.016-10.016S21.523 8.306 16 8.306zm.649 18.71v-.836a.649.649 0 10-1.298 0v.836c-4.291-.317-7.728-3.754-8.045-8.045h.836a.65.65 0 000-1.298h-.836c.317-4.291 3.754-7.728 8.045-8.045v.836a.649.649 0 101.298 0v-.836c4.291.317 7.728 3.754 8.045 8.045h-.836a.649.649 0 100 1.298h.836c-.317 4.291-3.754 7.728-8.045 8.045z"/><path d="M16.649 4.659v-.843h1.042c.358 0 .649-.29.649-.649V.648a.649.649 0 00-.649-.649h-3.382a.649.649 0 00-.649.649v2.519c0 .358.29.649.649.649h1.043v.843c-7.242.34-13.03 6.338-13.03 13.663C2.322 25.864 8.458 32 16 32s13.678-6.136 13.678-13.678c0-7.325-5.788-13.323-13.03-13.663zm-1.692-2.14V1.298h2.085v1.221h-2.085zM16 30.634c-6.789 0-12.313-5.523-12.313-12.313S9.21 6.008 16 6.008s12.313 5.523 12.313 12.313c0 6.789-5.523 12.313-12.313 12.313z"/><path d="M20.776 13.546a.649.649 0 00-.731-.13l.004-.002-5.936 2.698-.014.007a.25.25 0 00-.033.017l.003-.002-.026.015-.026.016a.315.315 0 00-.029.022l-.019.015a.715.715 0 00-.087.087l-.001.001a.347.347 0 00-.015.02c-.007.01-.015.019-.021.029l-.017.026-.015.025-.015.03-.007.014-2.698 5.936a.649.649 0 00.591.918.647.647 0 00.268-.058l5.936-2.698.014-.007.03-.015.025-.015.026-.016a.729.729 0 00.029-.021l.02-.015a.65.65 0 00.087-.087l.001-.001a.347.347 0 01.015-.02l.021-.028.017-.027a.33.33 0 00.015-.025l.015-.03.007-.014 2.698-5.936a.65.65 0 00-.132-.728zm-7.787 7.786l1.595-3.509 1.914 1.914-3.509 1.595zm4.427-2.512l-1.914-1.914 3.509-1.595-1.595 3.509z"/></symbol><symbol id="icon-share" viewBox="0 0 32 32"><path d="M25.312 21.505a5.237 5.237 0 00-4.123 2.008l-9.631-5.56a5.13 5.13 0 00.378-1.95v-.004a5.2 5.2 0 00-.391-1.985l.013.035 9.631-5.56a5.241 5.241 0 004.123 2.008c2.894 0 5.248-2.354 5.248-5.248S28.206.001 25.312.001s-5.248 2.354-5.248 5.248v.002a5.2 5.2 0 00.391 1.985l-.013-.035-9.631 5.56a5.242 5.242 0 00-4.124-2.008c-2.894 0-5.248 2.354-5.248 5.248s2.354 5.248 5.248 5.248a5.242 5.242 0 004.124-2.008l9.631 5.56a5.133 5.133 0 00-.378 1.95v.002c0 2.894 2.354 5.248 5.248 5.248s5.248-2.354 5.248-5.248-2.354-5.248-5.248-5.248zm0-20.017c2.073 0 3.76 1.687 3.76 3.76s-1.687 3.76-3.76 3.76c-2.073 0-3.76-1.687-3.76-3.76s1.687-3.76 3.76-3.76zM6.688 19.76c-2.073 0-3.76-1.687-3.76-3.76s1.687-3.76 3.76-3.76c2.073 0 3.76 1.687 3.76 3.76s-1.687 3.76-3.76 3.76zm18.624 10.752c-2.073 0-3.76-1.687-3.76-3.76s1.687-3.76 3.76-3.76c2.073 0 3.76 1.687 3.76 3.76s-1.687 3.76-3.76 3.76z"/><path d="M6.688 13.788c-1.22 0-2.212.992-2.212 2.212a.744.744 0 101.488 0c0-.399.325-.724.724-.724a.744.744 0 100-1.488z"/></symbol><symbol id="icon-coin-dollar" viewBox="0 0 32 32"><path d="M15 2C6.716 2 0 8.716 0 17s6.716 15 15 15c8.284 0 15-6.716 15-15S23.284 2 15 2zm0 27C8.373 29 3 23.627 3 17S8.373 5 15 5s12 5.373 12 12-5.373 12-12 12zm1-13v-4h4v-2h-4V8h-2v2h-4v8h4v4h-4v2h4v2h2v-2h4v-8h-4zm-2 0h-2v-4h2v4zm4 6h-2v-4h2v4z"/></symbol><symbol id="icon-phone" viewBox="0 0 32 32"><path d="M22 20c-2 2-2 4-4 4s-4-2-6-4-4-4-4-6 2-2 4-4-4-8-6-8-6 6-6 6c0 4 4.109 12.109 8 16s12 8 16 8c0 0 6-4 6-6s-6-8-8-6z"/></symbol><symbol id="icon-compass2" viewBox="0 0 32 32"><path d="M16 0C7.163 0 0 7.163 0 16s7.163 16 16 16 16-7.163 16-16S24.837 0 16 0zM3 16C3 8.82 8.82 3 16 3c3.424 0 6.538 1.325 8.86 3.488L12 12 6.488 24.86A12.952 12.952 0 013 16zm15.286 2.286l-8.003 3.43 3.43-8.003 4.573 4.573zM16 29a12.955 12.955 0 01-8.86-3.488L20 20l5.512-12.86A12.952 12.952 0 0129 16c0 7.18-5.82 13-13 13z"/></symbol><symbol id="icon-cog" viewBox="0 0 32 32"><path d="M29.181 19.07c-1.679-2.908-.669-6.634 2.255-8.328l-3.145-5.447a6.022 6.022 0 01-3.058.829c-3.361 0-6.085-2.742-6.085-6.125h-6.289a6.023 6.023 0 01-.811 3.07C10.369 5.977 6.637 6.966 3.709 5.28L.565 10.727a6.023 6.023 0 012.246 2.234c1.676 2.903.672 6.623-2.241 8.319l3.145 5.447a6.022 6.022 0 013.044-.82c3.35 0 6.067 2.725 6.084 6.092h6.289a6.032 6.032 0 01.811-3.038c1.676-2.903 5.399-3.894 8.325-2.219l3.145-5.447a6.032 6.032 0 01-2.232-2.226zM16 22.479A6.48 6.48 0 1116 9.52a6.48 6.48 0 010 12.959z"/></symbol><symbol id="icon-sphere" viewBox="0 0 32 32"><path d="M15 2C6.716 2 0 8.716 0 17s6.716 15 15 15c8.284 0 15-6.716 15-15S23.284 2 15 2zm8.487 20c.268-1.264.437-2.606.492-4h3.983a12.866 12.866 0 01-.959 4h-3.516zM6.513 12a23.855 23.855 0 00-.492 4H2.038c.104-1.381.426-2.722.959-4h3.516zm14.926 0c.3 1.28.481 2.62.54 4H16v-4h5.439zM16 10V4.146c.456.133.908.355 1.351.668.831.586 1.625 1.488 2.298 2.609.465.775.867 1.638 1.203 2.578H16zm-5.649-2.578c.673-1.121 1.467-2.023 2.298-2.609A4.557 4.557 0 0114 4.145v5.854H9.148c.336-.94.738-1.803 1.203-2.578zM14 12v4H8.021c.059-1.38.24-2.72.54-4H14zM2.997 22a12.894 12.894 0 01-.959-4h3.983c.055 1.394.224 2.736.492 4H2.997zm5.024-4H14v4H8.561c-.3-1.28-.481-2.62-.54-4zM14 24v5.854a4.557 4.557 0 01-1.351-.668c-.831-.586-1.625-1.488-2.298-2.609a14.478 14.478 0 01-1.203-2.578H14zm5.649 2.578c-.673 1.121-1.467 2.023-2.298 2.609a4.581 4.581 0 01-1.351.668v-5.854h4.852a14.51 14.51 0 01-1.203 2.578zM16 22v-4h5.979c-.059 1.38-.24 2.72-.54 4H16zm7.98-6a23.855 23.855 0 00-.492-4h3.516c.533 1.278.855 2.619.959 4H23.98zm1.978-6h-2.997c-.582-1.836-1.387-3.447-2.354-4.732a12.974 12.974 0 013.585 2.54A13.07 13.07 0 0125.958 10zM5.808 7.808a12.974 12.974 0 013.585-2.54C8.426 6.553 7.622 8.164 7.039 10H4.042a12.97 12.97 0 011.766-2.192zM4.042 24h2.997c.583 1.836 1.387 3.447 2.354 4.732a12.974 12.974 0 01-3.585-2.54A13.07 13.07 0 014.042 24zm20.15 2.192a12.974 12.974 0 01-3.585 2.54c.967-1.285 1.771-2.896 2.354-4.732h2.997a12.97 12.97 0 01-1.766 2.192z"/></symbol><symbol id="icon-mail" viewBox="0 0 32 32"><path d="M26.667 0H5.334C2.4 0 0 2.4 0 5.334v21.332C0 29.602 2.4 32 5.334 32h21.333C29.601 32 32 29.602 32 26.666V5.334C32 2.4 29.601 0 26.667 0zm0 4c.25 0 .486.073.688.198L16 13.586 4.645 4.199c.202-.125.439-.198.689-.198h21.333zM5.334 28a1.32 1.32 0 01-.178-.013l7.051-9.78-.914-.914L4 24.586V5.488L16 20 28 5.488v19.098l-7.293-7.293-.914.914 7.051 9.78a1.294 1.294 0 01-.177.013H5.334z"/></symbol></defs></svg>