<svg aria-hidden="true" style="position: absolute; width: 0; height: 0; overflow: hidden;" version="1.1" xmlns="http://www.w3.org/2000/svg" xmlns:xlink="http://www.w3.org/1999/xlink">
<defs>
<symbol id="icon-cart" viewBox="0 0 32 32">
<title>cart</title>
<path d="M13.418 25.177c-1.552 0-2.814 1.262-2.814 2.814s1.262 2.814 2.814 2.814 2.814-1.262 2.814-2.814c-0-1.552-1.263-2.814-2.814-2.814zM13.418 29.234c-0.685 0-1.243-0.558-1.243-1.243s0.558-1.243 1.243-1.243 1.243 0.558 1.243 1.243c0 0.685-0.558 1.243-1.243 1.243zM23.289 25.177c-1.552 0-2.814 1.262-2.814 2.814s1.262 2.814 2.814 2.814 2.814-1.262 2.814-2.814c-0-1.552-1.263-2.814-2.814-2.814zM23.289 29.234c-0.685 0-1.243-0.558-1.243-1.243s0.558-1.243 1.243-1.243c0.685 0 1.243 0.558 1.243 1.243s-0.558 1.243-1.243 1.243zM23.982 10.36h-11.259c-0.434 0-0.786 0.352-0.786 0.786s0.352 0.786 0.786 0.786h11.259c0.434 0 0.786-0.352 0.786-0.786s-0.352-0.786-0.786-0.786zM23.369 14.44h-10.034c-0.434 0-0.786 0.352-0.786 0.786s0.352 0.786 0.786 0.786h10.034c0.434 0 0.786-0.352 0.786-0.786s-0.352-0.786-0.786-0.786z"></path>
<path d="M31.646 6.859c-0.289-0.354-0.726-0.579-1.215-0.579-0.001 0-0.002 0-0.003 0h-24.473l-0.494-2.399c-0.108-0.508-0.449-0.919-0.903-1.12l-0.010-0.004-3.449-1.497c-0.398-0.173-0.861 0.010-1.034 0.408s0.010 0.861 0.408 1.034l3.449 1.497 3.802 18.454c0.15 0.727 0.797 1.254 1.539 1.254h18.823c0.434 0 0.786-0.352 0.786-0.786s-0.352-0.786-0.786-0.786h-18.823l-0.462-2.245h19.431c0.742 0 1.389-0.527 1.539-1.254l2.198-10.667c0.021-0.096 0.033-0.206 0.033-0.319 0-0.377-0.134-0.724-0.356-0.994l0.002 0.003zM28.231 18.519h-19.754l-2.198-10.667 24.15 0-2.198 10.667z"></path>
</symbol>
<symbol id="icon-heart" viewBox="0 0 32 32">
<title>heart</title>
<path d="M29.505 5.070c-1.685-1.723-3.939-2.672-6.347-2.672-2.371 0-4.6 0.923-6.276 2.6l-0.865 0.866-0.866-0.866c-1.677-1.677-3.905-2.6-6.275-2.6s-4.6 0.923-6.276 2.6c-1.676 1.676-2.599 3.905-2.599 6.276s0.923 4.599 2.599 6.276l11.093 11.093c0.641 0.641 1.482 0.961 2.324 0.961s1.683-0.32 2.324-0.961l11.021-11.020c3.462-3.462 3.526-9.092 0.144-12.551zM28.199 16.459l-11.021 11.020c-0.641 0.641-1.683 0.641-2.324-0l-11.093-11.093c-1.366-1.366-2.118-3.182-2.118-5.114s0.752-3.748 2.118-5.114c1.366-1.366 3.182-2.119 5.114-2.119s3.747 0.752 5.113 2.119l0.867 0.867-1.327 1.328c-0.321 0.321-0.32 0.841 0 1.162 0.148 0.149 0.353 0.24 0.58 0.24 0 0 0.001 0 0.001 0h-0c0.21 0 0.421-0.080 0.581-0.241l3.354-3.356c1.366-1.366 3.182-2.119 5.114-2.119 1.962 0 3.798 0.774 5.172 2.178 2.756 2.819 2.697 7.412-0.131 10.24z"></path>
<path d="M29.143 10.9c-0.096-1.519-0.744-2.87-1.743-3.869v0c-0.732-0.732-1.64-1.264-2.627-1.538-0.437-0.122-0.89 0.134-1.012 0.571s0.134 0.89 0.571 1.012c0.714 0.199 1.373 0.585 1.905 1.117 0.725 0.726 1.196 1.706 1.264 2.796l0.001 0.013c0.027 0.436 0.389 0.771 0.819 0.771 0.017 0 0.034-0.001 0.051-0.002 0.453-0.028 0.797-0.418 0.769-0.871z"></path>
</symbol>
<symbol id="icon-compass" viewBox="0 0 32 32">
<title>compass</title>
<path d="M16 8.306c-5.523 0-10.016 4.493-10.016 10.016s4.493 10.016 10.016 10.016 10.016-4.493 10.016-10.016-4.493-10.016-10.016-10.016zM16.649 27.016v-0.836c0-0.358-0.29-0.649-0.649-0.649s-0.649 0.29-0.649 0.649v0.836c-4.291-0.317-7.728-3.754-8.045-8.045h0.836c0.358 0 0.649-0.291 0.649-0.649s-0.29-0.649-0.649-0.649h-0.836c0.317-4.291 3.754-7.728 8.045-8.045v0.836c0 0.358 0.29 0.649 0.649 0.649s0.649-0.29 0.649-0.649v-0.836c4.291 0.317 7.728 3.754 8.045 8.045h-0.836c-0.358 0-0.649 0.29-0.649 0.649s0.29 0.649 0.649 0.649h0.836c-0.317 4.291-3.754 7.728-8.045 8.045z"></path>
<path d="M16.649 4.659v-0.843h1.042c0.358 0 0.649-0.29 0.649-0.649v-2.519c0-0.358-0.29-0.649-0.649-0.649h-3.382c-0.358 0-0.649 0.29-0.649 0.649v2.519c0 0.358 0.29 0.649 0.649 0.649h1.043v0.843c-7.242 0.34-13.030 6.338-13.030 13.663 0 7.542 6.136 13.678 13.678 13.678s13.678-6.136 13.678-13.678c0-7.325-5.788-13.323-13.030-13.663zM14.957 2.519v-1.221h2.085v1.221h-2.085zM16 30.634c-6.789 0-12.313-5.523-12.313-12.313s5.523-12.313 12.313-12.313 12.313 5.523 12.313 12.313c0 6.789-5.523 12.313-12.313 12.313z"></path>
<path d="M20.776 13.546c-0.117-0.117-0.28-0.19-0.459-0.19-0.097 0-0.19 0.021-0.272 0.060l0.004-0.002-5.936 2.698c-0.005 0.002-0.010 0.005-0.014 0.007-0.014 0.006-0.023 0.011-0.033 0.017l0.003-0.002c-0.009 0.005-0.017 0.010-0.026 0.015s-0.017 0.011-0.026 0.016c-0.010 0.007-0.020 0.014-0.029 0.022-0.006 0.005-0.013 0.010-0.019 0.015-0.032 0.027-0.061 0.056-0.087 0.087l-0.001 0.001c-0.005 0.006-0.010 0.013-0.015 0.020-0.007 0.010-0.015 0.019-0.021 0.029-0.006 0.009-0.011 0.017-0.017 0.026s-0.010 0.017-0.015 0.025c-0.005 0.010-0.010 0.020-0.015 0.030-0.002 0.005-0.005 0.009-0.007 0.014l-2.698 5.936c-0.037 0.079-0.058 0.171-0.058 0.269 0 0.358 0.29 0.649 0.649 0.649 0 0 0 0 0 0h-0c0.091 0 0.182-0.019 0.268-0.058l5.936-2.698c0.005-0.002 0.009-0.005 0.014-0.007 0.010-0.005 0.020-0.010 0.030-0.015 0.009-0.005 0.017-0.010 0.025-0.015s0.018-0.011 0.026-0.016c0.010-0.007 0.020-0.014 0.029-0.021 0.007-0.005 0.013-0.010 0.020-0.015 0.032-0.027 0.061-0.055 0.087-0.087l0.001-0.001c0.005-0.007 0.010-0.014 0.015-0.020 0.007-0.009 0.014-0.019 0.021-0.028 0.006-0.009 0.011-0.018 0.017-0.027s0.010-0.016 0.015-0.025c0.005-0.010 0.010-0.020 0.015-0.030 0.002-0.005 0.005-0.009 0.007-0.014l2.698-5.936c0.037-0.079 0.058-0.171 0.058-0.269 0-0.179-0.073-0.341-0.19-0.459v0zM12.989 21.332l1.595-3.509 1.914 1.914-3.509 1.595zM17.416 18.82l-1.914-1.914 3.509-1.595-1.595 3.509z"></path>
</symbol>
<symbol id="icon-share" viewBox="0 0 32 32">
<title>share</title>
<path d="M25.312 21.505c-1.671 0-3.162 0.786-4.123 2.008l-9.631-5.56c0.239-0.577 0.378-1.247 0.378-1.95 0-0.001 0-0.002 0-0.002v0c0-0.001 0-0.001 0-0.002 0-0.703-0.139-1.373-0.391-1.985l0.013 0.035 9.631-5.56c0.962 1.221 2.452 2.008 4.123 2.008 2.894 0 5.248-2.354 5.248-5.248s-2.354-5.248-5.248-5.248-5.248 2.354-5.248 5.248c0 0.001 0 0.001 0 0.002 0 0.703 0.139 1.373 0.391 1.985l-0.013-0.035-9.631 5.56c-0.962-1.221-2.452-2.008-4.124-2.008-2.894 0-5.248 2.354-5.248 5.248s2.354 5.248 5.248 5.248c1.672 0 3.162-0.787 4.124-2.008l9.631 5.56c-0.239 0.577-0.378 1.248-0.378 1.95 0 0.001 0 0.001 0 0.002v-0c0 2.894 2.354 5.248 5.248 5.248s5.248-2.354 5.248-5.248-2.354-5.248-5.248-5.248zM25.312 1.488c2.073 0 3.76 1.687 3.76 3.76s-1.687 3.76-3.76 3.76c-2.073 0-3.76-1.687-3.76-3.76s1.687-3.76 3.76-3.76zM6.688 19.76c-2.073 0-3.76-1.687-3.76-3.76s1.687-3.76 3.76-3.76c2.073 0 3.76 1.687 3.76 3.76s-1.687 3.76-3.76 3.76zM25.312 30.512c-2.073 0-3.76-1.687-3.76-3.76s1.687-3.76 3.76-3.76c2.073 0 3.76 1.687 3.76 3.76s-1.687 3.76-3.76 3.76z"></path>
<path d="M6.688 13.788c-1.22 0-2.212 0.992-2.212 2.212 0 0.411 0.333 0.744 0.744 0.744s0.744-0.333 0.744-0.744c0-0.399 0.325-0.724 0.724-0.724 0.411 0 0.744-0.333 0.744-0.744s-0.333-0.744-0.744-0.744z"></path>
</symbol>
<symbol id="icon-coin-dollar" viewBox="0 0 32 32">
<title>coin-dollar</title>
<path d="M15 2c-8.284 0-15 6.716-15 15s6.716 15 15 15c8.284 0 15-6.716 15-15s-6.716-15-15-15zM15 29c-6.627 0-12-5.373-12-12s5.373-12 12-12c6.627 0 12 5.373 12 12s-5.373 12-12 12zM16 16v-4h4v-2h-4v-2h-2v2h-4v8h4v4h-4v2h4v2h2v-2h4l-0-8h-4zM14 16h-2v-4h2v4zM18 22h-2v-4h2v4z"></path>
</symbol>
<symbol id="icon-phone" viewBox="0 0 32 32">
<title>phone</title>
<path d="M22 20c-2 2-2 4-4 4s-4-2-6-4-4-4-4-6 2-2 4-4-4-8-6-8-6 6-6 6c0 4 4.109 12.109 8 16s12 8 16 8c0 0 6-4 6-6s-6-8-8-6z"></path>
</symbol>
<symbol id="icon-compass2" viewBox="0 0 32 32">
<title>compass2</title>
<path d="M16 0c-8.837 0-16 7.163-16 16s7.163 16 16 16 16-7.163 16-16-7.163-16-16-16zM3 16c0-7.18 5.82-13 13-13 3.424 0 6.538 1.325 8.86 3.488l-12.86 5.512-5.512 12.86c-2.164-2.322-3.488-5.436-3.488-8.86zM18.286 18.286l-8.003 3.43 3.43-8.003 4.573 4.573zM16 29c-3.424 0-6.539-1.325-8.86-3.488l12.86-5.512 5.512-12.86c2.164 2.322 3.488 5.436 3.488 8.86 0 7.18-5.82 13-13 13z"></path>
</symbol>
<symbol id="icon-cog" viewBox="0 0 32 32">
<title>cog</title>
<path d="M29.181 19.070c-1.679-2.908-0.669-6.634 2.255-8.328l-3.145-5.447c-0.898 0.527-1.943 0.829-3.058 0.829-3.361 0-6.085-2.742-6.085-6.125h-6.289c0.008 1.044-0.252 2.103-0.811 3.070-1.679 2.908-5.411 3.897-8.339 2.211l-3.144 5.447c0.905 0.515 1.689 1.268 2.246 2.234 1.676 2.903 0.672 6.623-2.241 8.319l3.145 5.447c0.895-0.522 1.935-0.82 3.044-0.82 3.35 0 6.067 2.725 6.084 6.092h6.289c-0.003-1.034 0.259-2.080 0.811-3.038 1.676-2.903 5.399-3.894 8.325-2.219l3.145-5.447c-0.899-0.515-1.678-1.266-2.232-2.226zM16 22.479c-3.578 0-6.479-2.901-6.479-6.479s2.901-6.479 6.479-6.479c3.578 0 6.479 2.901 6.479 6.479s-2.901 6.479-6.479 6.479z"></path>
</symbol>
<symbol id="icon-sphere" viewBox="0 0 32 32">
<title>sphere</title>
<path d="M15 2c-8.284 0-15 6.716-15 15s6.716 15 15 15c8.284 0 15-6.716 15-15s-6.716-15-15-15zM23.487 22c0.268-1.264 0.437-2.606 0.492-4h3.983c-0.104 1.381-0.426 2.722-0.959 4h-3.516zM6.513 12c-0.268 1.264-0.437 2.606-0.492 4h-3.983c0.104-1.381 0.426-2.722 0.959-4h3.516zM21.439 12c0.3 1.28 0.481 2.62 0.54 4h-5.979v-4h5.439zM16 10v-5.854c0.456 0.133 0.908 0.355 1.351 0.668 0.831 0.586 1.625 1.488 2.298 2.609 0.465 0.775 0.867 1.638 1.203 2.578h-4.852zM10.351 7.422c0.673-1.121 1.467-2.023 2.298-2.609 0.443-0.313 0.895-0.535 1.351-0.668v5.854h-4.852c0.336-0.94 0.738-1.803 1.203-2.578zM14 12v4h-5.979c0.059-1.38 0.24-2.72 0.54-4h5.439zM2.997 22c-0.533-1.278-0.854-2.619-0.959-4h3.983c0.055 1.394 0.224 2.736 0.492 4h-3.516zM8.021 18h5.979v4h-5.439c-0.3-1.28-0.481-2.62-0.54-4zM14 24v5.854c-0.456-0.133-0.908-0.355-1.351-0.668-0.831-0.586-1.625-1.488-2.298-2.609-0.465-0.775-0.867-1.638-1.203-2.578h4.852zM19.649 26.578c-0.673 1.121-1.467 2.023-2.298 2.609-0.443 0.312-0.895 0.535-1.351 0.668v-5.854h4.852c-0.336 0.94-0.738 1.802-1.203 2.578zM16 22v-4h5.979c-0.059 1.38-0.24 2.72-0.54 4h-5.439zM23.98 16c-0.055-1.394-0.224-2.736-0.492-4h3.516c0.533 1.278 0.855 2.619 0.959 4h-3.983zM25.958 10h-2.997c-0.582-1.836-1.387-3.447-2.354-4.732 1.329 0.636 2.533 1.488 3.585 2.54 0.671 0.671 1.261 1.404 1.766 2.192zM5.808 7.808c1.052-1.052 2.256-1.904 3.585-2.54-0.967 1.285-1.771 2.896-2.354 4.732h-2.997c0.504-0.788 1.094-1.521 1.766-2.192zM4.042 24h2.997c0.583 1.836 1.387 3.447 2.354 4.732-1.329-0.636-2.533-1.488-3.585-2.54-0.671-0.671-1.261-1.404-1.766-2.192zM24.192 26.192c-1.052 1.052-2.256 1.904-3.585 2.54 0.967-1.285 1.771-2.896 2.354-4.732h2.997c-0.504 0.788-1.094 1.521-1.766 2.192z"></path>
</symbol>
<symbol id="icon-mail" viewBox="0 0 32 32">
<title>mail</title>
<path d="M26.667 0h-21.333c-2.934 0-5.334 2.4-5.334 5.334v21.332c0 2.936 2.4 5.334 5.334 5.334h21.333c2.934 0 5.333-2.398 5.333-5.334v-21.332c0-2.934-2.399-5.334-5.333-5.334zM26.667 4c0.25 0 0.486 0.073 0.688 0.198l-11.355 9.388-11.355-9.387c0.202-0.125 0.439-0.198 0.689-0.198h21.333zM5.334 28c-0.060 0-0.119-0.005-0.178-0.013l7.051-9.78-0.914-0.914-7.293 7.293v-19.098l12 14.512 12-14.512v19.098l-7.293-7.293-0.914 0.914 7.051 9.78c-0.058 0.008-0.117 0.013-0.177 0.013h-21.333z"></path>
</symbol>
</defs>
</svg>
